<svg xmlns="http://www.w3.org/2000/svg" width="867" height="390" viewBox="0 0 867 390">
<rect width="100%" height="100%" fill="white"/>
<text x="433.5" y="29" text-anchor="middle" font-family="Arial" font-size="22" font-weight="700">Tabela - Comparacao de Tempo e Lucro (CSV_300itens_aumento_de_peso_e_volume.csv)</text>
<rect x="1" y="44" width="865" height="38" fill="#bfbfbf" stroke="#222" stroke-width="1"/>
<rect x="1" y="44" width="110" height="38" fill="#bfbfbf" stroke="#222" stroke-width="1"/>
<text x="56.0" y="69" text-anchor="middle" font-family="Arial" font-size="16" font-weight="700">N (Itens)</text>
<rect x="111" y="44" width="170" height="38" fill="#bfbfbf" stroke="#222" stroke-width="1"/>
<text x="196.0" y="69" text-anchor="middle" font-family="Arial" font-size="16" font-weight="700">Metodo</text>
<rect x="281" y="44" width="150" height="38" fill="#bfbfbf" stroke="#222" stroke-width="1"/>
<text x="356.0" y="69" text-anchor="middle" font-family="Arial" font-size="16" font-weight="700">Lucro</text>
<rect x="431" y="44" width="145" height="38" fill="#bfbfbf" stroke="#222" stroke-width="1"/>
<text x="503.5" y="69" text-anchor="middle" font-family="Arial" font-size="16" font-weight="700">Tempo (ms)</text>
<rect x="576" y="44" width="145" height="38" fill="#bfbfbf" stroke="#222" stroke-width="1"/>
<text x="648.5" y="69" text-anchor="middle" font-family="Arial" font-size="16" font-weight="700">Desvio (ms)</text>
<rect x="721" y="44" width="145" height="38" fill="#bfbfbf" stroke="#222" stroke-width="1"/>
<text x="793.5" y="69" text-anchor="middle" font-family="Arial" font-size="16" font-weight="700">IC 95% (ms)</text>
<rect x="1" y="82" width="110" height="34" fill="white" stroke="#222" stroke-width="1"/>
<text x="56.0" y="104" text-anchor="middle" font-family="Arial" font-size="15" font-weight="400">100</text>
<rect x="111" y="82" width="170" height="34" fill="#a4c2f4" stroke="#222" stroke-width="1"/>
<text x="196.0" y="104" text-anchor="middle" font-family="Arial" font-size="15" font-weight="700">Backtracking</text>
<rect x="281" y="82" width="150" height="34" fill="white" stroke="#222" stroke-width="1"/>
<text x="356.0" y="104" text-anchor="middle" font-family="Arial" font-size="15" font-weight="400">R$ 4.273,17</text>
<rect x="431" y="82" width="145" height="34" fill="white" stroke="#222" stroke-width="1"/>
<text x="503.5" y="104" text-anchor="middle" font-family="Arial" font-size="15" font-weight="400">2,97</text>
<rect x="576" y="82" width="145" height="34" fill="white" stroke="#222" stroke-width="1"/>
<text x="648.5" y="104" text-anchor="middle" font-family="Arial" font-size="15" font-weight="400">2,82</text>
<rect x="721" y="82" width="145" height="34" fill="white" stroke="#222" stroke-width="1"/>
<text x="793.5" y="104" text-anchor="middle" font-family="Arial" font-size="15" font-weight="400">0,29</text>
<rect x="1" y="116" width="110" height="34" fill="white" stroke="#222" stroke-width="1"/>
<text x="56.0" y="138" text-anchor="middle" font-family="Arial" font-size="15" font-weight="400">100</text>
<rect x="111" y="116" width="170" height="34" fill="#f9cb9c" stroke="#222" stroke-width="1"/>
<text x="196.0" y="138" text-anchor="middle" font-family="Arial" font-size="15" font-weight="700">BnB</text>
<rect x="281" y="116" width="150" height="34" fill="white" stroke="#222" stroke-width="1"/>
<text x="356.0" y="138" text-anchor="middle" font-family="Arial" font-size="15" font-weight="400">R$ 4.273,17</text>
<rect x="431" y="116" width="145" height="34" fill="white" stroke="#222" stroke-width="1"/>
<text x="503.5" y="138" text-anchor="middle" font-family="Arial" font-size="15" font-weight="400">0,77</text>
<rect x="576" y="116" width="145" height="34" fill="white" stroke="#222" stroke-width="1"/>
<text x="648.5" y="138" text-anchor="middle" font-family="Arial" font-size="15" font-weight="400">0,71</text>
<rect x="721" y="116" width="145" height="34" fill="white" stroke="#222" stroke-width="1"/>
<text x="793.5" y="138" text-anchor="middle" font-family="Arial" font-size="15" font-weight="400">0,073</text>
<rect x="1" y="150" width="110" height="34" fill="white" stroke="#222" stroke-width="1"/>
<text x="56.0" y="172" text-anchor="middle" font-family="Arial" font-size="15" font-weight="400">100</text>
<rect x="111" y="150" width="170" height="34" fill="#b6d7a8" stroke="#222" stroke-width="1"/>
<text x="196.0" y="172" text-anchor="middle" font-family="Arial" font-size="15" font-weight="700">Dinamica</text>
<rect x="281" y="150" width="150" height="34" fill="white" stroke="#222" stroke-width="1"/>
<text x="356.0" y="172" text-anchor="middle" font-family="Arial" font-size="15" font-weight="400">R$ 4.273,17</text>
<rect x="431" y="150" width="145" height="34" fill="white" stroke="#222" stroke-width="1"/>
<text x="503.5" y="172" text-anchor="middle" font-family="Arial" font-size="15" font-weight="400">10,38</text>
<rect x="576" y="150" width="145" height="34" fill="white" stroke="#222" stroke-width="1"/>
<text x="648.5" y="172" text-anchor="middle" font-family="Arial" font-size="15" font-weight="400">16,75</text>
<rect x="721" y="150" width="145" height="34" fill="white" stroke="#222" stroke-width="1"/>
<text x="793.5" y="172" text-anchor="middle" font-family="Arial" font-size="15" font-weight="400">1,73</text>
<rect x="1" y="184" width="110" height="34" fill="white" stroke="#222" stroke-width="1"/>
<text x="56.0" y="206" text-anchor="middle" font-family="Arial" font-size="15" font-weight="400">200</text>
<rect x="111" y="184" width="170" height="34" fill="#a4c2f4" stroke="#222" stroke-width="1"/>
<text x="196.0" y="206" text-anchor="middle" font-family="Arial" font-size="15" font-weight="700">Backtracking</text>
<rect x="281" y="184" width="150" height="34" fill="white" stroke="#222" stroke-width="1"/>
<text x="356.0" y="206" text-anchor="middle" font-family="Arial" font-size="15" font-weight="400">R$ 5.597,43</text>
<rect x="431" y="184" width="145" height="34" fill="white" stroke="#222" stroke-width="1"/>
<text x="503.5" y="206" text-anchor="middle" font-family="Arial" font-size="15" font-weight="400">143,54</text>
<rect x="576" y="184" width="145" height="34" fill="white" stroke="#222" stroke-width="1"/>
<text x="648.5" y="206" text-anchor="middle" font-family="Arial" font-size="15" font-weight="400">166,30</text>
<rect x="721" y="184" width="145" height="34" fill="white" stroke="#222" stroke-width="1"/>
<text x="793.5" y="206" text-anchor="middle" font-family="Arial" font-size="15" font-weight="400">17,18</text>
<rect x="1" y="218" width="110" height="34" fill="white" stroke="#222" stroke-width="1"/>
<text x="56.0" y="240" text-anchor="middle" font-family="Arial" font-size="15" font-weight="400">200</text>
<rect x="111" y="218" width="170" height="34" fill="#f9cb9c" stroke="#222" stroke-width="1"/>
<text x="196.0" y="240" text-anchor="middle" font-family="Arial" font-size="15" font-weight="700">BnB</text>
<rect x="281" y="218" width="150" height="34" fill="white" stroke="#222" stroke-width="1"/>
<text x="356.0" y="240" text-anchor="middle" font-family="Arial" font-size="15" font-weight="400">R$ 5.597,43</text>
<rect x="431" y="218" width="145" height="34" fill="white" stroke="#222" stroke-width="1"/>
<text x="503.5" y="240" text-anchor="middle" font-family="Arial" font-size="15" font-weight="400">24,46</text>
<rect x="576" y="218" width="145" height="34" fill="white" stroke="#222" stroke-width="1"/>
<text x="648.5" y="240" text-anchor="middle" font-family="Arial" font-size="15" font-weight="400">24,72</text>
<rect x="721" y="218" width="145" height="34" fill="white" stroke="#222" stroke-width="1"/>
<text x="793.5" y="240" text-anchor="middle" font-family="Arial" font-size="15" font-weight="400">2,55</text>
<rect x="1" y="252" width="110" height="34" fill="white" stroke="#222" stroke-width="1"/>
<text x="56.0" y="274" text-anchor="middle" font-family="Arial" font-size="15" font-weight="400">200</text>
<rect x="111" y="252" width="170" height="34" fill="#b6d7a8" stroke="#222" stroke-width="1"/>
<text x="196.0" y="274" text-anchor="middle" font-family="Arial" font-size="15" font-weight="700">Dinamica</text>
<rect x="281" y="252" width="150" height="34" fill="white" stroke="#222" stroke-width="1"/>
<text x="356.0" y="274" text-anchor="middle" font-family="Arial" font-size="15" font-weight="400">R$ 5.597,43</text>
<rect x="431" y="252" width="145" height="34" fill="white" stroke="#222" stroke-width="1"/>
<text x="503.5" y="274" text-anchor="middle" font-family="Arial" font-size="15" font-weight="400">1315,34</text>
<rect x="576" y="252" width="145" height="34" fill="white" stroke="#222" stroke-width="1"/>
<text x="648.5" y="274" text-anchor="middle" font-family="Arial" font-size="15" font-weight="400">4853,49</text>
<rect x="721" y="252" width="145" height="34" fill="white" stroke="#222" stroke-width="1"/>
<text x="793.5" y="274" text-anchor="middle" font-family="Arial" font-size="15" font-weight="400">501,37</text>
<rect x="1" y="286" width="110" height="34" fill="white" stroke="#222" stroke-width="1"/>
<text x="56.0" y="308" text-anchor="middle" font-family="Arial" font-size="15" font-weight="400">300</text>
<rect x="111" y="286" width="170" height="34" fill="#a4c2f4" stroke="#222" stroke-width="1"/>
<text x="196.0" y="308" text-anchor="middle" font-family="Arial" font-size="15" font-weight="700">Backtracking</text>
<rect x="281" y="286" width="150" height="34" fill="white" stroke="#222" stroke-width="1"/>
<text x="356.0" y="308" text-anchor="middle" font-family="Arial" font-size="15" font-weight="400">R$ 6.474,51</text>
<rect x="431" y="286" width="145" height="34" fill="white" stroke="#222" stroke-width="1"/>
<text x="503.5" y="308" text-anchor="middle" font-family="Arial" font-size="15" font-weight="400">2238,65</text>
<rect x="576" y="286" width="145" height="34" fill="white" stroke="#222" stroke-width="1"/>
<text x="648.5" y="308" text-anchor="middle" font-family="Arial" font-size="15" font-weight="400">3193,96</text>
<rect x="721" y="286" width="145" height="34" fill="white" stroke="#222" stroke-width="1"/>
<text x="793.5" y="308" text-anchor="middle" font-family="Arial" font-size="15" font-weight="400">329,94</text>
<rect x="1" y="320" width="110" height="34" fill="white" stroke="#222" stroke-width="1"/>
<text x="56.0" y="342" text-anchor="middle" font-family="Arial" font-size="15" font-weight="400">300</text>
<rect x="111" y="320" width="170" height="34" fill="#f9cb9c" stroke="#222" stroke-width="1"/>
<text x="196.0" y="342" text-anchor="middle" font-family="Arial" font-size="15" font-weight="700">BnB</text>
<rect x="281" y="320" width="150" height="34" fill="white" stroke="#222" stroke-width="1"/>
<text x="356.0" y="342" text-anchor="middle" font-family="Arial" font-size="15" font-weight="400">R$ 6.474,51</text>
<rect x="431" y="320" width="145" height="34" fill="white" stroke="#222" stroke-width="1"/>
<text x="503.5" y="342" text-anchor="middle" font-family="Arial" font-size="15" font-weight="400">311,02</text>
<rect x="576" y="320" width="145" height="34" fill="white" stroke="#222" stroke-width="1"/>
<text x="648.5" y="342" text-anchor="middle" font-family="Arial" font-size="15" font-weight="400">370,25</text>
<rect x="721" y="320" width="145" height="34" fill="white" stroke="#222" stroke-width="1"/>
<text x="793.5" y="342" text-anchor="middle" font-family="Arial" font-size="15" font-weight="400">38,25</text>
<rect x="1" y="354" width="110" height="34" fill="white" stroke="#222" stroke-width="1"/>
<text x="56.0" y="376" text-anchor="middle" font-family="Arial" font-size="15" font-weight="400">300</text>
<rect x="111" y="354" width="170" height="34" fill="#b6d7a8" stroke="#222" stroke-width="1"/>
<text x="196.0" y="376" text-anchor="middle" font-family="Arial" font-size="15" font-weight="700">Dinamica</text>
<rect x="281" y="354" width="150" height="34" fill="white" stroke="#222" stroke-width="1"/>
<text x="356.0" y="376" text-anchor="middle" font-family="Arial" font-size="15" font-weight="400">R$ 6.474,51</text>
<rect x="431" y="354" width="145" height="34" fill="white" stroke="#222" stroke-width="1"/>
<text x="503.5" y="376" text-anchor="middle" font-family="Arial" font-size="15" font-weight="400">2083,91</text>
<rect x="576" y="354" width="145" height="34" fill="white" stroke="#222" stroke-width="1"/>
<text x="648.5" y="376" text-anchor="middle" font-family="Arial" font-size="15" font-weight="400">3625,20</text>
<rect x="721" y="354" width="145" height="34" fill="white" stroke="#222" stroke-width="1"/>
<text x="793.5" y="376" text-anchor="middle" font-family="Arial" font-size="15" font-weight="400">374,49</text>
</svg>