<svg xmlns="http://www.w3.org/2000/svg" width="867" height="1002" viewBox="0 0 867 1002">
<rect width="100%" height="100%" fill="white"/>
<text x="433.5" y="29" text-anchor="middle" font-family="Arial" font-size="22" font-weight="700">Tabela - Comparacao de Tempo e Lucro (CSV_100a1000.csv)</text>
<rect x="1" y="44" width="865" height="38" fill="#bfbfbf" stroke="#222" stroke-width="1"/>
<rect x="1" y="44" width="110" height="38" fill="#bfbfbf" stroke="#222" stroke-width="1"/>
<text x="56.0" y="69" text-anchor="middle" font-family="Arial" font-size="16" font-weight="700">N (Itens)</text>
<rect x="111" y="44" width="170" height="38" fill="#bfbfbf" stroke="#222" stroke-width="1"/>
<text x="196.0" y="69" text-anchor="middle" font-family="Arial" font-size="16" font-weight="700">Metodo</text>
<rect x="281" y="44" width="150" height="38" fill="#bfbfbf" stroke="#222" stroke-width="1"/>
<text x="356.0" y="69" text-anchor="middle" font-family="Arial" font-size="16" font-weight="700">Lucro</text>
<rect x="431" y="44" width="145" height="38" fill="#bfbfbf" stroke="#222" stroke-width="1"/>
<text x="503.5" y="69" text-anchor="middle" font-family="Arial" font-size="16" font-weight="700">Tempo (ms)</text>
<rect x="576" y="44" width="145" height="38" fill="#bfbfbf" stroke="#222" stroke-width="1"/>
<text x="648.5" y="69" text-anchor="middle" font-family="Arial" font-size="16" font-weight="700">Desvio (ms)</text>
<rect x="721" y="44" width="145" height="38" fill="#bfbfbf" stroke="#222" stroke-width="1"/>
<text x="793.5" y="69" text-anchor="middle" font-family="Arial" font-size="16" font-weight="700">IC 95% (ms)</text>
<rect x="1" y="82" width="110" height="34" fill="white" stroke="#222" stroke-width="1"/>
<text x="56.0" y="104" text-anchor="middle" font-family="Arial" font-size="15" font-weight="400">100</text>
<rect x="111" y="82" width="170" height="34" fill="#a4c2f4" stroke="#222" stroke-width="1"/>
<text x="196.0" y="104" text-anchor="middle" font-family="Arial" font-size="15" font-weight="700">Backtracking</text>
<rect x="281" y="82" width="150" height="34" fill="white" stroke="#222" stroke-width="1"/>
<text x="356.0" y="104" text-anchor="middle" font-family="Arial" font-size="15" font-weight="400">R$ 4.224,35</text>
<rect x="431" y="82" width="145" height="34" fill="white" stroke="#222" stroke-width="1"/>
<text x="503.5" y="104" text-anchor="middle" font-family="Arial" font-size="15" font-weight="400">2,51</text>
<rect x="576" y="82" width="145" height="34" fill="white" stroke="#222" stroke-width="1"/>
<text x="648.5" y="104" text-anchor="middle" font-family="Arial" font-size="15" font-weight="400">2,63</text>
<rect x="721" y="82" width="145" height="34" fill="white" stroke="#222" stroke-width="1"/>
<text x="793.5" y="104" text-anchor="middle" font-family="Arial" font-size="15" font-weight="400">0,33</text>
<rect x="1" y="116" width="110" height="34" fill="white" stroke="#222" stroke-width="1"/>
<text x="56.0" y="138" text-anchor="middle" font-family="Arial" font-size="15" font-weight="400">100</text>
<rect x="111" y="116" width="170" height="34" fill="#f9cb9c" stroke="#222" stroke-width="1"/>
<text x="196.0" y="138" text-anchor="middle" font-family="Arial" font-size="15" font-weight="700">BnB</text>
<rect x="281" y="116" width="150" height="34" fill="white" stroke="#222" stroke-width="1"/>
<text x="356.0" y="138" text-anchor="middle" font-family="Arial" font-size="15" font-weight="400">R$ 4.224,35</text>
<rect x="431" y="116" width="145" height="34" fill="white" stroke="#222" stroke-width="1"/>
<text x="503.5" y="138" text-anchor="middle" font-family="Arial" font-size="15" font-weight="400">0,7</text>
<rect x="576" y="116" width="145" height="34" fill="white" stroke="#222" stroke-width="1"/>
<text x="648.5" y="138" text-anchor="middle" font-family="Arial" font-size="15" font-weight="400">0,69</text>
<rect x="721" y="116" width="145" height="34" fill="white" stroke="#222" stroke-width="1"/>
<text x="793.5" y="138" text-anchor="middle" font-family="Arial" font-size="15" font-weight="400">0,086</text>
<rect x="1" y="150" width="110" height="34" fill="white" stroke="#222" stroke-width="1"/>
<text x="56.0" y="172" text-anchor="middle" font-family="Arial" font-size="15" font-weight="400">100</text>
<rect x="111" y="150" width="170" height="34" fill="#b6d7a8" stroke="#222" stroke-width="1"/>
<text x="196.0" y="172" text-anchor="middle" font-family="Arial" font-size="15" font-weight="700">Dinamica</text>
<rect x="281" y="150" width="150" height="34" fill="white" stroke="#222" stroke-width="1"/>
<text x="356.0" y="172" text-anchor="middle" font-family="Arial" font-size="15" font-weight="400">R$ 4.224,35</text>
<rect x="431" y="150" width="145" height="34" fill="white" stroke="#222" stroke-width="1"/>
<text x="503.5" y="172" text-anchor="middle" font-family="Arial" font-size="15" font-weight="400">5,95</text>
<rect x="576" y="150" width="145" height="34" fill="white" stroke="#222" stroke-width="1"/>
<text x="648.5" y="172" text-anchor="middle" font-family="Arial" font-size="15" font-weight="400">6,55</text>
<rect x="721" y="150" width="145" height="34" fill="white" stroke="#222" stroke-width="1"/>
<text x="793.5" y="172" text-anchor="middle" font-family="Arial" font-size="15" font-weight="400">0,81</text>
<rect x="1" y="184" width="110" height="34" fill="white" stroke="#222" stroke-width="1"/>
<text x="56.0" y="206" text-anchor="middle" font-family="Arial" font-size="15" font-weight="400">200</text>
<rect x="111" y="184" width="170" height="34" fill="#a4c2f4" stroke="#222" stroke-width="1"/>
<text x="196.0" y="206" text-anchor="middle" font-family="Arial" font-size="15" font-weight="700">Backtracking</text>
<rect x="281" y="184" width="150" height="34" fill="white" stroke="#222" stroke-width="1"/>
<text x="356.0" y="206" text-anchor="middle" font-family="Arial" font-size="15" font-weight="400">R$ 5.449,19</text>
<rect x="431" y="184" width="145" height="34" fill="white" stroke="#222" stroke-width="1"/>
<text x="503.5" y="206" text-anchor="middle" font-family="Arial" font-size="15" font-weight="400">135,21</text>
<rect x="576" y="184" width="145" height="34" fill="white" stroke="#222" stroke-width="1"/>
<text x="648.5" y="206" text-anchor="middle" font-family="Arial" font-size="15" font-weight="400">198,71</text>
<rect x="721" y="184" width="145" height="34" fill="white" stroke="#222" stroke-width="1"/>
<text x="793.5" y="206" text-anchor="middle" font-family="Arial" font-size="15" font-weight="400">24,63</text>
<rect x="1" y="218" width="110" height="34" fill="white" stroke="#222" stroke-width="1"/>
<text x="56.0" y="240" text-anchor="middle" font-family="Arial" font-size="15" font-weight="400">200</text>
<rect x="111" y="218" width="170" height="34" fill="#f9cb9c" stroke="#222" stroke-width="1"/>
<text x="196.0" y="240" text-anchor="middle" font-family="Arial" font-size="15" font-weight="700">BnB</text>
<rect x="281" y="218" width="150" height="34" fill="white" stroke="#222" stroke-width="1"/>
<text x="356.0" y="240" text-anchor="middle" font-family="Arial" font-size="15" font-weight="400">R$ 5.449,19</text>
<rect x="431" y="218" width="145" height="34" fill="white" stroke="#222" stroke-width="1"/>
<text x="503.5" y="240" text-anchor="middle" font-family="Arial" font-size="15" font-weight="400">21,76</text>
<rect x="576" y="218" width="145" height="34" fill="white" stroke="#222" stroke-width="1"/>
<text x="648.5" y="240" text-anchor="middle" font-family="Arial" font-size="15" font-weight="400">27,29</text>
<rect x="721" y="218" width="145" height="34" fill="white" stroke="#222" stroke-width="1"/>
<text x="793.5" y="240" text-anchor="middle" font-family="Arial" font-size="15" font-weight="400">3,38</text>
<rect x="1" y="252" width="110" height="34" fill="white" stroke="#222" stroke-width="1"/>
<text x="56.0" y="274" text-anchor="middle" font-family="Arial" font-size="15" font-weight="400">200</text>
<rect x="111" y="252" width="170" height="34" fill="#b6d7a8" stroke="#222" stroke-width="1"/>
<text x="196.0" y="274" text-anchor="middle" font-family="Arial" font-size="15" font-weight="700">Dinamica</text>
<rect x="281" y="252" width="150" height="34" fill="white" stroke="#222" stroke-width="1"/>
<text x="356.0" y="274" text-anchor="middle" font-family="Arial" font-size="15" font-weight="400">R$ 5.449,19</text>
<rect x="431" y="252" width="145" height="34" fill="white" stroke="#222" stroke-width="1"/>
<text x="503.5" y="274" text-anchor="middle" font-family="Arial" font-size="15" font-weight="400">67,78</text>
<rect x="576" y="252" width="145" height="34" fill="white" stroke="#222" stroke-width="1"/>
<text x="648.5" y="274" text-anchor="middle" font-family="Arial" font-size="15" font-weight="400">85,61</text>
<rect x="721" y="252" width="145" height="34" fill="white" stroke="#222" stroke-width="1"/>
<text x="793.5" y="274" text-anchor="middle" font-family="Arial" font-size="15" font-weight="400">10,61</text>
<rect x="1" y="286" width="110" height="34" fill="white" stroke="#222" stroke-width="1"/>
<text x="56.0" y="308" text-anchor="middle" font-family="Arial" font-size="15" font-weight="400">300</text>
<rect x="111" y="286" width="170" height="34" fill="#a4c2f4" stroke="#222" stroke-width="1"/>
<text x="196.0" y="308" text-anchor="middle" font-family="Arial" font-size="15" font-weight="700">Backtracking</text>
<rect x="281" y="286" width="150" height="34" fill="white" stroke="#222" stroke-width="1"/>
<text x="356.0" y="308" text-anchor="middle" font-family="Arial" font-size="15" font-weight="400">R$ 6.413,50</text>
<rect x="431" y="286" width="145" height="34" fill="white" stroke="#222" stroke-width="1"/>
<text x="503.5" y="308" text-anchor="middle" font-family="Arial" font-size="15" font-weight="400">2078,04</text>
<rect x="576" y="286" width="145" height="34" fill="white" stroke="#222" stroke-width="1"/>
<text x="648.5" y="308" text-anchor="middle" font-family="Arial" font-size="15" font-weight="400">3941,64</text>
<rect x="721" y="286" width="145" height="34" fill="white" stroke="#222" stroke-width="1"/>
<text x="793.5" y="308" text-anchor="middle" font-family="Arial" font-size="15" font-weight="400">488,61</text>
<rect x="1" y="320" width="110" height="34" fill="white" stroke="#222" stroke-width="1"/>
<text x="56.0" y="342" text-anchor="middle" font-family="Arial" font-size="15" font-weight="400">300</text>
<rect x="111" y="320" width="170" height="34" fill="#f9cb9c" stroke="#222" stroke-width="1"/>
<text x="196.0" y="342" text-anchor="middle" font-family="Arial" font-size="15" font-weight="700">BnB</text>
<rect x="281" y="320" width="150" height="34" fill="white" stroke="#222" stroke-width="1"/>
<text x="356.0" y="342" text-anchor="middle" font-family="Arial" font-size="15" font-weight="400">R$ 6.413,50</text>
<rect x="431" y="320" width="145" height="34" fill="white" stroke="#222" stroke-width="1"/>
<text x="503.5" y="342" text-anchor="middle" font-family="Arial" font-size="15" font-weight="400">237,50</text>
<rect x="576" y="320" width="145" height="34" fill="white" stroke="#222" stroke-width="1"/>
<text x="648.5" y="342" text-anchor="middle" font-family="Arial" font-size="15" font-weight="400">260,02</text>
<rect x="721" y="320" width="145" height="34" fill="white" stroke="#222" stroke-width="1"/>
<text x="793.5" y="342" text-anchor="middle" font-family="Arial" font-size="15" font-weight="400">32,23</text>
<rect x="1" y="354" width="110" height="34" fill="white" stroke="#222" stroke-width="1"/>
<text x="56.0" y="376" text-anchor="middle" font-family="Arial" font-size="15" font-weight="400">300</text>
<rect x="111" y="354" width="170" height="34" fill="#b6d7a8" stroke="#222" stroke-width="1"/>
<text x="196.0" y="376" text-anchor="middle" font-family="Arial" font-size="15" font-weight="700">Dinamica</text>
<rect x="281" y="354" width="150" height="34" fill="white" stroke="#222" stroke-width="1"/>
<text x="356.0" y="376" text-anchor="middle" font-family="Arial" font-size="15" font-weight="400">R$ 6.413,50</text>
<rect x="431" y="354" width="145" height="34" fill="white" stroke="#222" stroke-width="1"/>
<text x="503.5" y="376" text-anchor="middle" font-family="Arial" font-size="15" font-weight="400">209,47</text>
<rect x="576" y="354" width="145" height="34" fill="white" stroke="#222" stroke-width="1"/>
<text x="648.5" y="376" text-anchor="middle" font-family="Arial" font-size="15" font-weight="400">246,00</text>
<rect x="721" y="354" width="145" height="34" fill="white" stroke="#222" stroke-width="1"/>
<text x="793.5" y="376" text-anchor="middle" font-family="Arial" font-size="15" font-weight="400">30,50</text>
<rect x="1" y="388" width="110" height="34" fill="white" stroke="#222" stroke-width="1"/>
<text x="56.0" y="410" text-anchor="middle" font-family="Arial" font-size="15" font-weight="400">400</text>
<rect x="111" y="388" width="170" height="34" fill="#a4c2f4" stroke="#222" stroke-width="1"/>
<text x="196.0" y="410" text-anchor="middle" font-family="Arial" font-size="15" font-weight="700">Backtracking</text>
<rect x="281" y="388" width="150" height="34" fill="white" stroke="#222" stroke-width="1"/>
<text x="356.0" y="410" text-anchor="middle" font-family="Arial" font-size="15" font-weight="400">R$ 7.159,03</text>
<rect x="431" y="388" width="145" height="34" fill="white" stroke="#222" stroke-width="1"/>
<text x="503.5" y="410" text-anchor="middle" font-family="Arial" font-size="15" font-weight="400">20620,42</text>
<rect x="576" y="388" width="145" height="34" fill="white" stroke="#222" stroke-width="1"/>
<text x="648.5" y="410" text-anchor="middle" font-family="Arial" font-size="15" font-weight="400">32838,51</text>
<rect x="721" y="388" width="145" height="34" fill="white" stroke="#222" stroke-width="1"/>
<text x="793.5" y="410" text-anchor="middle" font-family="Arial" font-size="15" font-weight="400">4070,70</text>
<rect x="1" y="422" width="110" height="34" fill="white" stroke="#222" stroke-width="1"/>
<text x="56.0" y="444" text-anchor="middle" font-family="Arial" font-size="15" font-weight="400">400</text>
<rect x="111" y="422" width="170" height="34" fill="#f9cb9c" stroke="#222" stroke-width="1"/>
<text x="196.0" y="444" text-anchor="middle" font-family="Arial" font-size="15" font-weight="700">BnB</text>
<rect x="281" y="422" width="150" height="34" fill="white" stroke="#222" stroke-width="1"/>
<text x="356.0" y="444" text-anchor="middle" font-family="Arial" font-size="15" font-weight="400">R$ 7.159,03</text>
<rect x="431" y="422" width="145" height="34" fill="white" stroke="#222" stroke-width="1"/>
<text x="503.5" y="444" text-anchor="middle" font-family="Arial" font-size="15" font-weight="400">2114,92</text>
<rect x="576" y="422" width="145" height="34" fill="white" stroke="#222" stroke-width="1"/>
<text x="648.5" y="444" text-anchor="middle" font-family="Arial" font-size="15" font-weight="400">3740,67</text>
<rect x="721" y="422" width="145" height="34" fill="white" stroke="#222" stroke-width="1"/>
<text x="793.5" y="444" text-anchor="middle" font-family="Arial" font-size="15" font-weight="400">463,70</text>
<rect x="1" y="456" width="110" height="34" fill="white" stroke="#222" stroke-width="1"/>
<text x="56.0" y="478" text-anchor="middle" font-family="Arial" font-size="15" font-weight="400">400</text>
<rect x="111" y="456" width="170" height="34" fill="#b6d7a8" stroke="#222" stroke-width="1"/>
<text x="196.0" y="478" text-anchor="middle" font-family="Arial" font-size="15" font-weight="700">Dinamica</text>
<rect x="281" y="456" width="150" height="34" fill="white" stroke="#222" stroke-width="1"/>
<text x="356.0" y="478" text-anchor="middle" font-family="Arial" font-size="15" font-weight="400">R$ 7.159,03</text>
<rect x="431" y="456" width="145" height="34" fill="white" stroke="#222" stroke-width="1"/>
<text x="503.5" y="478" text-anchor="middle" font-family="Arial" font-size="15" font-weight="400">463,21</text>
<rect x="576" y="456" width="145" height="34" fill="white" stroke="#222" stroke-width="1"/>
<text x="648.5" y="478" text-anchor="middle" font-family="Arial" font-size="15" font-weight="400">559,61</text>
<rect x="721" y="456" width="145" height="34" fill="white" stroke="#222" stroke-width="1"/>
<text x="793.5" y="478" text-anchor="middle" font-family="Arial" font-size="15" font-weight="400">69,37</text>
<rect x="1" y="490" width="110" height="34" fill="white" stroke="#222" stroke-width="1"/>
<text x="56.0" y="512" text-anchor="middle" font-family="Arial" font-size="15" font-weight="400">500</text>
<rect x="111" y="490" width="170" height="34" fill="#a4c2f4" stroke="#222" stroke-width="1"/>
<text x="196.0" y="512" text-anchor="middle" font-family="Arial" font-size="15" font-weight="700">Backtracking</text>
<rect x="281" y="490" width="150" height="34" fill="white" stroke="#222" stroke-width="1"/>
<text x="356.0" y="512" text-anchor="middle" font-family="Arial" font-size="15" font-weight="400">R$ 7.690,23</text>
<rect x="431" y="490" width="145" height="34" fill="white" stroke="#222" stroke-width="1"/>
<text x="503.5" y="512" text-anchor="middle" font-family="Arial" font-size="15" font-weight="400">107349,12</text>
<rect x="576" y="490" width="145" height="34" fill="white" stroke="#222" stroke-width="1"/>
<text x="648.5" y="512" text-anchor="middle" font-family="Arial" font-size="15" font-weight="400">181476,07</text>
<rect x="721" y="490" width="145" height="34" fill="white" stroke="#222" stroke-width="1"/>
<text x="793.5" y="512" text-anchor="middle" font-family="Arial" font-size="15" font-weight="400">22496,01</text>
<rect x="1" y="524" width="110" height="34" fill="white" stroke="#222" stroke-width="1"/>
<text x="56.0" y="546" text-anchor="middle" font-family="Arial" font-size="15" font-weight="400">500</text>
<rect x="111" y="524" width="170" height="34" fill="#f9cb9c" stroke="#222" stroke-width="1"/>
<text x="196.0" y="546" text-anchor="middle" font-family="Arial" font-size="15" font-weight="700">BnB</text>
<rect x="281" y="524" width="150" height="34" fill="white" stroke="#222" stroke-width="1"/>
<text x="356.0" y="546" text-anchor="middle" font-family="Arial" font-size="15" font-weight="400">R$ 7.690,23</text>
<rect x="431" y="524" width="145" height="34" fill="white" stroke="#222" stroke-width="1"/>
<text x="503.5" y="546" text-anchor="middle" font-family="Arial" font-size="15" font-weight="400">10284,93</text>
<rect x="576" y="524" width="145" height="34" fill="white" stroke="#222" stroke-width="1"/>
<text x="648.5" y="546" text-anchor="middle" font-family="Arial" font-size="15" font-weight="400">14983,80</text>
<rect x="721" y="524" width="145" height="34" fill="white" stroke="#222" stroke-width="1"/>
<text x="793.5" y="546" text-anchor="middle" font-family="Arial" font-size="15" font-weight="400">1857,41</text>
<rect x="1" y="558" width="110" height="34" fill="white" stroke="#222" stroke-width="1"/>
<text x="56.0" y="580" text-anchor="middle" font-family="Arial" font-size="15" font-weight="400">500</text>
<rect x="111" y="558" width="170" height="34" fill="#b6d7a8" stroke="#222" stroke-width="1"/>
<text x="196.0" y="580" text-anchor="middle" font-family="Arial" font-size="15" font-weight="700">Dinamica</text>
<rect x="281" y="558" width="150" height="34" fill="white" stroke="#222" stroke-width="1"/>
<text x="356.0" y="580" text-anchor="middle" font-family="Arial" font-size="15" font-weight="400">R$ 7.690,23</text>
<rect x="431" y="558" width="145" height="34" fill="white" stroke="#222" stroke-width="1"/>
<text x="503.5" y="580" text-anchor="middle" font-family="Arial" font-size="15" font-weight="400">492,30</text>
<rect x="576" y="558" width="145" height="34" fill="white" stroke="#222" stroke-width="1"/>
<text x="648.5" y="580" text-anchor="middle" font-family="Arial" font-size="15" font-weight="400">491,48</text>
<rect x="721" y="558" width="145" height="34" fill="white" stroke="#222" stroke-width="1"/>
<text x="793.5" y="580" text-anchor="middle" font-family="Arial" font-size="15" font-weight="400">60,92</text>
<rect x="1" y="592" width="110" height="34" fill="white" stroke="#222" stroke-width="1"/>
<text x="56.0" y="614" text-anchor="middle" font-family="Arial" font-size="15" font-weight="400">600</text>
<rect x="111" y="592" width="170" height="34" fill="#a4c2f4" stroke="#222" stroke-width="1"/>
<text x="196.0" y="614" text-anchor="middle" font-family="Arial" font-size="15" font-weight="700">Backtracking</text>
<rect x="281" y="592" width="150" height="34" fill="white" stroke="#222" stroke-width="1"/>
<text x="356.0" y="614" text-anchor="middle" font-family="Arial" font-size="15" font-weight="400">R$ 8.120,59</text>
<rect x="431" y="592" width="145" height="34" fill="white" stroke="#222" stroke-width="1"/>
<text x="503.5" y="614" text-anchor="middle" font-family="Arial" font-size="15" font-weight="400">340572,63</text>
<rect x="576" y="592" width="145" height="34" fill="white" stroke="#222" stroke-width="1"/>
<text x="648.5" y="614" text-anchor="middle" font-family="Arial" font-size="15" font-weight="400">493271,33</text>
<rect x="721" y="592" width="145" height="34" fill="white" stroke="#222" stroke-width="1"/>
<text x="793.5" y="614" text-anchor="middle" font-family="Arial" font-size="15" font-weight="400">78678,03</text>
<rect x="1" y="626" width="110" height="34" fill="white" stroke="#222" stroke-width="1"/>
<text x="56.0" y="648" text-anchor="middle" font-family="Arial" font-size="15" font-weight="400">600</text>
<rect x="111" y="626" width="170" height="34" fill="#f9cb9c" stroke="#222" stroke-width="1"/>
<text x="196.0" y="648" text-anchor="middle" font-family="Arial" font-size="15" font-weight="700">BnB</text>
<rect x="281" y="626" width="150" height="34" fill="white" stroke="#222" stroke-width="1"/>
<text x="356.0" y="648" text-anchor="middle" font-family="Arial" font-size="15" font-weight="400">R$ 8.120,59</text>
<rect x="431" y="626" width="145" height="34" fill="white" stroke="#222" stroke-width="1"/>
<text x="503.5" y="648" text-anchor="middle" font-family="Arial" font-size="15" font-weight="400">30863,91</text>
<rect x="576" y="626" width="145" height="34" fill="white" stroke="#222" stroke-width="1"/>
<text x="648.5" y="648" text-anchor="middle" font-family="Arial" font-size="15" font-weight="400">46119,17</text>
<rect x="721" y="626" width="145" height="34" fill="white" stroke="#222" stroke-width="1"/>
<text x="793.5" y="648" text-anchor="middle" font-family="Arial" font-size="15" font-weight="400">7356,12</text>
<rect x="1" y="660" width="110" height="34" fill="white" stroke="#222" stroke-width="1"/>
<text x="56.0" y="682" text-anchor="middle" font-family="Arial" font-size="15" font-weight="400">600</text>
<rect x="111" y="660" width="170" height="34" fill="#b6d7a8" stroke="#222" stroke-width="1"/>
<text x="196.0" y="682" text-anchor="middle" font-family="Arial" font-size="15" font-weight="700">Dinamica</text>
<rect x="281" y="660" width="150" height="34" fill="white" stroke="#222" stroke-width="1"/>
<text x="356.0" y="682" text-anchor="middle" font-family="Arial" font-size="15" font-weight="400">R$ 8.120,46</text>
<rect x="431" y="660" width="145" height="34" fill="white" stroke="#222" stroke-width="1"/>
<text x="503.5" y="682" text-anchor="middle" font-family="Arial" font-size="15" font-weight="400">281,36</text>
<rect x="576" y="660" width="145" height="34" fill="white" stroke="#222" stroke-width="1"/>
<text x="648.5" y="682" text-anchor="middle" font-family="Arial" font-size="15" font-weight="400">190,93</text>
<rect x="721" y="660" width="145" height="34" fill="white" stroke="#222" stroke-width="1"/>
<text x="793.5" y="682" text-anchor="middle" font-family="Arial" font-size="15" font-weight="400">30,35</text>
<rect x="1" y="694" width="110" height="34" fill="white" stroke="#222" stroke-width="1"/>
<text x="56.0" y="716" text-anchor="middle" font-family="Arial" font-size="15" font-weight="400">700</text>
<rect x="111" y="694" width="170" height="34" fill="#a4c2f4" stroke="#222" stroke-width="1"/>
<text x="196.0" y="716" text-anchor="middle" font-family="Arial" font-size="15" font-weight="700">Backtracking</text>
<rect x="281" y="694" width="150" height="34" fill="white" stroke="#222" stroke-width="1"/>
<text x="356.0" y="716" text-anchor="middle" font-family="Arial" font-size="15" font-weight="400">R$ 8.738,40</text>
<rect x="431" y="694" width="145" height="34" fill="white" stroke="#222" stroke-width="1"/>
<text x="503.5" y="716" text-anchor="middle" font-family="Arial" font-size="15" font-weight="400">2614005,92</text>
<rect x="576" y="694" width="145" height="34" fill="white" stroke="#222" stroke-width="1"/>
<text x="648.5" y="716" text-anchor="middle" font-family="Arial" font-size="15" font-weight="400">2720350,51</text>
<rect x="721" y="694" width="145" height="34" fill="white" stroke="#222" stroke-width="1"/>
<text x="793.5" y="716" text-anchor="middle" font-family="Arial" font-size="15" font-weight="400">1686090,71</text>
<rect x="1" y="728" width="110" height="34" fill="white" stroke="#222" stroke-width="1"/>
<text x="56.0" y="750" text-anchor="middle" font-family="Arial" font-size="15" font-weight="400">700</text>
<rect x="111" y="728" width="170" height="34" fill="#f9cb9c" stroke="#222" stroke-width="1"/>
<text x="196.0" y="750" text-anchor="middle" font-family="Arial" font-size="15" font-weight="700">BnB</text>
<rect x="281" y="728" width="150" height="34" fill="white" stroke="#222" stroke-width="1"/>
<text x="356.0" y="750" text-anchor="middle" font-family="Arial" font-size="15" font-weight="400">R$ 8.738,40</text>
<rect x="431" y="728" width="145" height="34" fill="white" stroke="#222" stroke-width="1"/>
<text x="503.5" y="750" text-anchor="middle" font-family="Arial" font-size="15" font-weight="400">383136,13</text>
<rect x="576" y="728" width="145" height="34" fill="white" stroke="#222" stroke-width="1"/>
<text x="648.5" y="750" text-anchor="middle" font-family="Arial" font-size="15" font-weight="400">345567,14</text>
<rect x="721" y="728" width="145" height="34" fill="white" stroke="#222" stroke-width="1"/>
<text x="793.5" y="750" text-anchor="middle" font-family="Arial" font-size="15" font-weight="400">214184,74</text>
<rect x="1" y="762" width="110" height="34" fill="white" stroke="#222" stroke-width="1"/>
<text x="56.0" y="784" text-anchor="middle" font-family="Arial" font-size="15" font-weight="400">700</text>
<rect x="111" y="762" width="170" height="34" fill="#b6d7a8" stroke="#222" stroke-width="1"/>
<text x="196.0" y="784" text-anchor="middle" font-family="Arial" font-size="15" font-weight="700">Dinamica</text>
<rect x="281" y="762" width="150" height="34" fill="white" stroke="#222" stroke-width="1"/>
<text x="356.0" y="784" text-anchor="middle" font-family="Arial" font-size="15" font-weight="400">R$ 8.738,40</text>
<rect x="431" y="762" width="145" height="34" fill="white" stroke="#222" stroke-width="1"/>
<text x="503.5" y="784" text-anchor="middle" font-family="Arial" font-size="15" font-weight="400">4693,00</text>
<rect x="576" y="762" width="145" height="34" fill="white" stroke="#222" stroke-width="1"/>
<text x="648.5" y="784" text-anchor="middle" font-family="Arial" font-size="15" font-weight="400">1758,94</text>
<rect x="721" y="762" width="145" height="34" fill="white" stroke="#222" stroke-width="1"/>
<text x="793.5" y="784" text-anchor="middle" font-family="Arial" font-size="15" font-weight="400">1090,20</text>
<rect x="1" y="796" width="110" height="34" fill="white" stroke="#222" stroke-width="1"/>
<text x="56.0" y="818" text-anchor="middle" font-family="Arial" font-size="15" font-weight="400">800</text>
<rect x="111" y="796" width="170" height="34" fill="#a4c2f4" stroke="#222" stroke-width="1"/>
<text x="196.0" y="818" text-anchor="middle" font-family="Arial" font-size="15" font-weight="700">Backtracking</text>
<rect x="281" y="796" width="150" height="34" fill="white" stroke="#222" stroke-width="1"/>
<text x="356.0" y="818" text-anchor="middle" font-family="Arial" font-size="15" font-weight="400">R$ 10.022,33</text>
<rect x="431" y="796" width="145" height="34" fill="white" stroke="#222" stroke-width="1"/>
<text x="503.5" y="818" text-anchor="middle" font-family="Arial" font-size="15" font-weight="400">6021482,90</text>
<rect x="576" y="796" width="145" height="34" fill="white" stroke="#222" stroke-width="1"/>
<text x="648.5" y="818" text-anchor="middle" font-family="Arial" font-size="15" font-weight="400">2547461,45</text>
<rect x="721" y="796" width="145" height="34" fill="white" stroke="#222" stroke-width="1"/>
<text x="793.5" y="818" text-anchor="middle" font-family="Arial" font-size="15" font-weight="400">2882724,01</text>
<rect x="1" y="830" width="110" height="34" fill="white" stroke="#222" stroke-width="1"/>
<text x="56.0" y="852" text-anchor="middle" font-family="Arial" font-size="15" font-weight="400">800</text>
<rect x="111" y="830" width="170" height="34" fill="#f9cb9c" stroke="#222" stroke-width="1"/>
<text x="196.0" y="852" text-anchor="middle" font-family="Arial" font-size="15" font-weight="700">BnB</text>
<rect x="281" y="830" width="150" height="34" fill="white" stroke="#222" stroke-width="1"/>
<text x="356.0" y="852" text-anchor="middle" font-family="Arial" font-size="15" font-weight="400">R$ 10.034,50</text>
<rect x="431" y="830" width="145" height="34" fill="white" stroke="#222" stroke-width="1"/>
<text x="503.5" y="852" text-anchor="middle" font-family="Arial" font-size="15" font-weight="400">805789,41</text>
<rect x="576" y="830" width="145" height="34" fill="white" stroke="#222" stroke-width="1"/>
<text x="648.5" y="852" text-anchor="middle" font-family="Arial" font-size="15" font-weight="400">150657,94</text>
<rect x="721" y="830" width="145" height="34" fill="white" stroke="#222" stroke-width="1"/>
<text x="793.5" y="852" text-anchor="middle" font-family="Arial" font-size="15" font-weight="400">208801,26</text>
<rect x="1" y="864" width="110" height="34" fill="white" stroke="#222" stroke-width="1"/>
<text x="56.0" y="886" text-anchor="middle" font-family="Arial" font-size="15" font-weight="400">800</text>
<rect x="111" y="864" width="170" height="34" fill="#b6d7a8" stroke="#222" stroke-width="1"/>
<text x="196.0" y="886" text-anchor="middle" font-family="Arial" font-size="15" font-weight="700">Dinamica</text>
<rect x="281" y="864" width="150" height="34" fill="white" stroke="#222" stroke-width="1"/>
<text x="356.0" y="886" text-anchor="middle" font-family="Arial" font-size="15" font-weight="400">R$ 10.022,33</text>
<rect x="431" y="864" width="145" height="34" fill="white" stroke="#222" stroke-width="1"/>
<text x="503.5" y="886" text-anchor="middle" font-family="Arial" font-size="15" font-weight="400">4578,84</text>
<rect x="576" y="864" width="145" height="34" fill="white" stroke="#222" stroke-width="1"/>
<text x="648.5" y="886" text-anchor="middle" font-family="Arial" font-size="15" font-weight="400">546,22</text>
<rect x="721" y="864" width="145" height="34" fill="white" stroke="#222" stroke-width="1"/>
<text x="793.5" y="886" text-anchor="middle" font-family="Arial" font-size="15" font-weight="400">618,10</text>
<rect x="1" y="898" width="110" height="34" fill="white" stroke="#222" stroke-width="1"/>
<text x="56.0" y="920" text-anchor="middle" font-family="Arial" font-size="15" font-weight="400">1000</text>
<rect x="111" y="898" width="170" height="34" fill="#a4c2f4" stroke="#222" stroke-width="1"/>
<text x="196.0" y="920" text-anchor="middle" font-family="Arial" font-size="15" font-weight="700">Backtracking</text>
<rect x="281" y="898" width="150" height="34" fill="white" stroke="#222" stroke-width="1"/>
<text x="356.0" y="920" text-anchor="middle" font-family="Arial" font-size="15" font-weight="400">R$ 9.398,00</text>
<rect x="431" y="898" width="145" height="34" fill="white" stroke="#222" stroke-width="1"/>
<text x="503.5" y="920" text-anchor="middle" font-family="Arial" font-size="15" font-weight="400">5972688,15</text>
<rect x="576" y="898" width="145" height="34" fill="white" stroke="#222" stroke-width="1"/>
<text x="648.5" y="920" text-anchor="middle" font-family="Arial" font-size="15" font-weight="400"></text>
<rect x="721" y="898" width="145" height="34" fill="white" stroke="#222" stroke-width="1"/>
<text x="793.5" y="920" text-anchor="middle" font-family="Arial" font-size="15" font-weight="400">0</text>
<rect x="1" y="932" width="110" height="34" fill="white" stroke="#222" stroke-width="1"/>
<text x="56.0" y="954" text-anchor="middle" font-family="Arial" font-size="15" font-weight="400">1000</text>
<rect x="111" y="932" width="170" height="34" fill="#f9cb9c" stroke="#222" stroke-width="1"/>
<text x="196.0" y="954" text-anchor="middle" font-family="Arial" font-size="15" font-weight="700">BnB</text>
<rect x="281" y="932" width="150" height="34" fill="white" stroke="#222" stroke-width="1"/>
<text x="356.0" y="954" text-anchor="middle" font-family="Arial" font-size="15" font-weight="400">R$ 9.398,00</text>
<rect x="431" y="932" width="145" height="34" fill="white" stroke="#222" stroke-width="1"/>
<text x="503.5" y="954" text-anchor="middle" font-family="Arial" font-size="15" font-weight="400">343263,70</text>
<rect x="576" y="932" width="145" height="34" fill="white" stroke="#222" stroke-width="1"/>
<text x="648.5" y="954" text-anchor="middle" font-family="Arial" font-size="15" font-weight="400"></text>
<rect x="721" y="932" width="145" height="34" fill="white" stroke="#222" stroke-width="1"/>
<text x="793.5" y="954" text-anchor="middle" font-family="Arial" font-size="15" font-weight="400">0</text>
<rect x="1" y="966" width="110" height="34" fill="white" stroke="#222" stroke-width="1"/>
<text x="56.0" y="988" text-anchor="middle" font-family="Arial" font-size="15" font-weight="400">1000</text>
<rect x="111" y="966" width="170" height="34" fill="#b6d7a8" stroke="#222" stroke-width="1"/>
<text x="196.0" y="988" text-anchor="middle" font-family="Arial" font-size="15" font-weight="700">Dinamica</text>
<rect x="281" y="966" width="150" height="34" fill="white" stroke="#222" stroke-width="1"/>
<text x="356.0" y="988" text-anchor="middle" font-family="Arial" font-size="15" font-weight="400">R$ 8.758,50</text>
<rect x="431" y="966" width="145" height="34" fill="white" stroke="#222" stroke-width="1"/>
<text x="503.5" y="988" text-anchor="middle" font-family="Arial" font-size="15" font-weight="400">440,41</text>
<rect x="576" y="966" width="145" height="34" fill="white" stroke="#222" stroke-width="1"/>
<text x="648.5" y="988" text-anchor="middle" font-family="Arial" font-size="15" font-weight="400">58,72</text>
<rect x="721" y="966" width="145" height="34" fill="white" stroke="#222" stroke-width="1"/>
<text x="793.5" y="988" text-anchor="middle" font-family="Arial" font-size="15" font-weight="400">81,38</text>
</svg>