<svg xmlns="http://www.w3.org/2000/svg" width="920" height="520" viewBox="0 0 920 520">
<rect width="100%" height="100%" fill="white"/>
<text x="460.0" y="28" text-anchor="middle" font-family="Arial" font-size="18" font-weight="700">Tempo medio por peso - 100-500itens_100-500_Peso_Volume.csv</text>
<line x1="86" y1="54" x2="86" y2="444" stroke="#444"/>
<line x1="86" y1="444" x2="892" y2="444" stroke="#444"/>
<line x1="86" y1="54.0" x2="892" y2="54.0" stroke="#e5e7eb"/>
<text x="76" y="58.0" text-anchor="end" font-family="Arial" font-size="11">35.4</text>
<line x1="86" y1="132.0" x2="892" y2="132.0" stroke="#e5e7eb"/>
<text x="76" y="136.0" text-anchor="end" font-family="Arial" font-size="11">10.1</text>
<line x1="86" y1="210.0" x2="892" y2="210.0" stroke="#e5e7eb"/>
<text x="76" y="214.0" text-anchor="end" font-family="Arial" font-size="11">2.87</text>
<line x1="86" y1="288.0" x2="892" y2="288.0" stroke="#e5e7eb"/>
<text x="76" y="292.0" text-anchor="end" font-family="Arial" font-size="11">0.818</text>
<line x1="86" y1="366.0" x2="892" y2="366.0" stroke="#e5e7eb"/>
<text x="76" y="370.0" text-anchor="end" font-family="Arial" font-size="11">0.233</text>
<line x1="86" y1="444.0" x2="892" y2="444.0" stroke="#e5e7eb"/>
<text x="76" y="448.0" text-anchor="end" font-family="Arial" font-size="11">0.0664</text>
<line x1="86.0" y1="444" x2="86.0" y2="449" stroke="#444"/>
<text x="86.0" y="466" text-anchor="middle" font-family="Arial" font-size="11">100</text>
<line x1="287.5" y1="444" x2="287.5" y2="449" stroke="#444"/>
<text x="287.5" y="466" text-anchor="middle" font-family="Arial" font-size="11">200</text>
<line x1="489.0" y1="444" x2="489.0" y2="449" stroke="#444"/>
<text x="489.0" y="466" text-anchor="middle" font-family="Arial" font-size="11">300</text>
<line x1="690.5" y1="444" x2="690.5" y2="449" stroke="#444"/>
<text x="690.5" y="466" text-anchor="middle" font-family="Arial" font-size="11">400</text>
<line x1="892.0" y1="444" x2="892.0" y2="449" stroke="#444"/>
<text x="892.0" y="466" text-anchor="middle" font-family="Arial" font-size="11">500</text>
<polyline points="86.0,444.0 287.5,400.5 489.0,369.1 690.5,343.6 892.0,320.8" fill="none" stroke="#2563eb" stroke-width="2.5"/>
<circle cx="86.0" cy="444.0" r="4" fill="#2563eb"/>
<circle cx="287.5" cy="400.5" r="4" fill="#2563eb"/>
<circle cx="489.0" cy="369.1" r="4" fill="#2563eb"/>
<circle cx="690.5" cy="343.6" r="4" fill="#2563eb"/>
<circle cx="892.0" cy="320.8" r="4" fill="#2563eb"/>
<rect x="96" y="66" width="12" height="12" fill="#2563eb"/>
<text x="114" y="76" font-family="Arial" font-size="12">Programacao dinamica</text>
<polyline points="86.0,101.4 287.5,89.5 489.0,54.0 690.5,67.0 892.0,64.9" fill="none" stroke="#dc2626" stroke-width="2.5"/>
<circle cx="86.0" cy="101.4" r="4" fill="#dc2626"/>
<circle cx="287.5" cy="89.5" r="4" fill="#dc2626"/>
<circle cx="489.0" cy="54.0" r="4" fill="#dc2626"/>
<circle cx="690.5" cy="67.0" r="4" fill="#dc2626"/>
<circle cx="892.0" cy="64.9" r="4" fill="#dc2626"/>
<rect x="96" y="86" width="12" height="12" fill="#dc2626"/>
<text x="114" y="96" font-family="Arial" font-size="12">Backtracking</text>
<polyline points="86.0,239.0 287.5,218.8 489.0,216.1 690.5,214.0 892.0,205.8" fill="none" stroke="#16a34a" stroke-width="2.5"/>
<circle cx="86.0" cy="239.0" r="4" fill="#16a34a"/>
<circle cx="287.5" cy="218.8" r="4" fill="#16a34a"/>
<circle cx="489.0" cy="216.1" r="4" fill="#16a34a"/>
<circle cx="690.5" cy="214.0" r="4" fill="#16a34a"/>
<circle cx="892.0" cy="205.8" r="4" fill="#16a34a"/>
<rect x="96" y="106" width="12" height="12" fill="#16a34a"/>
<text x="114" y="116" font-family="Arial" font-size="12">Branch-and-bound</text>
<text x="489.0" y="500" text-anchor="middle" font-family="Arial" font-size="13">Capacidade de peso (W)</text>
<text x="18" y="249.0" text-anchor="middle" transform="rotate(-90 18 249.0)" font-family="Arial" font-size="13">Tempo medio (s, escala log)</text>
</svg>