<svg xmlns="http://www.w3.org/2000/svg" width="920" height="520" viewBox="0 0 920 520">
<rect width="100%" height="100%" fill="white"/>
<text x="460.0" y="28" text-anchor="middle" font-family="Arial" font-size="18" font-weight="700">Tempo medio por peso - CSV_300Itens_aumento_de_peso_e_volume.csv</text>
<line x1="86" y1="54" x2="86" y2="444" stroke="#444"/>
<line x1="86" y1="444" x2="892" y2="444" stroke="#444"/>
<line x1="86" y1="54.0" x2="892" y2="54.0" stroke="#e5e7eb"/>
<text x="76" y="58.0" text-anchor="end" font-family="Arial" font-size="11">0.81</text>
<line x1="86" y1="132.0" x2="892" y2="132.0" stroke="#e5e7eb"/>
<text x="76" y="136.0" text-anchor="end" font-family="Arial" font-size="11">0.198</text>
<line x1="86" y1="210.0" x2="892" y2="210.0" stroke="#e5e7eb"/>
<text x="76" y="214.0" text-anchor="end" font-family="Arial" font-size="11">0.0484</text>
<line x1="86" y1="288.0" x2="892" y2="288.0" stroke="#e5e7eb"/>
<text x="76" y="292.0" text-anchor="end" font-family="Arial" font-size="11">0.0118</text>
<line x1="86" y1="366.0" x2="892" y2="366.0" stroke="#e5e7eb"/>
<text x="76" y="370.0" text-anchor="end" font-family="Arial" font-size="11">0.00289</text>
<line x1="86" y1="444.0" x2="892" y2="444.0" stroke="#e5e7eb"/>
<text x="76" y="448.0" text-anchor="end" font-family="Arial" font-size="11">0.000706</text>
<line x1="86.0" y1="444" x2="86.0" y2="449" stroke="#444"/>
<text x="86.0" y="466" text-anchor="middle" font-family="Arial" font-size="11">100</text>
<line x1="86.0" y1="444" x2="86.0" y2="449" stroke="#444"/>
<text x="86.0" y="466" text-anchor="middle" font-family="Arial" font-size="11">10000</text>
<line x1="86.1" y1="444" x2="86.1" y2="449" stroke="#444"/>
<text x="86.1" y="466" text-anchor="middle" font-family="Arial" font-size="11">100000</text>
<line x1="86.8" y1="444" x2="86.8" y2="449" stroke="#444"/>
<text x="86.8" y="466" text-anchor="middle" font-family="Arial" font-size="11">1000000</text>
<line x1="94.1" y1="444" x2="94.1" y2="449" stroke="#444"/>
<text x="94.1" y="466" text-anchor="middle" font-family="Arial" font-size="11">10000000</text>
<line x1="166.6" y1="444" x2="166.6" y2="449" stroke="#444"/>
<text x="166.6" y="466" text-anchor="middle" font-family="Arial" font-size="11">100000000</text>
<line x1="892.0" y1="444" x2="892.0" y2="449" stroke="#444"/>
<text x="892.0" y="466" text-anchor="middle" font-family="Arial" font-size="11">1000000000</text>
<polyline points="86.0,54.0 86.0,86.8 86.1,56.6 86.8,82.2 94.1,90.4 166.6,105.4 892.0,293.8" fill="none" stroke="#2563eb" stroke-width="2.5"/>
<circle cx="86.0" cy="54.0" r="4" fill="#2563eb"/>
<circle cx="86.0" cy="86.8" r="4" fill="#2563eb"/>
<circle cx="86.1" cy="56.6" r="4" fill="#2563eb"/>
<circle cx="86.8" cy="82.2" r="4" fill="#2563eb"/>
<circle cx="94.1" cy="90.4" r="4" fill="#2563eb"/>
<circle cx="166.6" cy="105.4" r="4" fill="#2563eb"/>
<circle cx="892.0" cy="293.8" r="4" fill="#2563eb"/>
<rect x="96" y="66" width="12" height="12" fill="#2563eb"/>
<text x="114" y="76" font-family="Arial" font-size="12">Programacao dinamica</text>
<polyline points="86.0,182.1 86.0,194.2 86.1,192.3 86.8,204.8 94.1,189.9 166.6,355.0 892.0,369.7" fill="none" stroke="#dc2626" stroke-width="2.5"/>
<circle cx="86.0" cy="182.1" r="4" fill="#dc2626"/>
<circle cx="86.0" cy="194.2" r="4" fill="#dc2626"/>
<circle cx="86.1" cy="192.3" r="4" fill="#dc2626"/>
<circle cx="86.8" cy="204.8" r="4" fill="#dc2626"/>
<circle cx="94.1" cy="189.9" r="4" fill="#dc2626"/>
<circle cx="166.6" cy="355.0" r="4" fill="#dc2626"/>
<circle cx="892.0" cy="369.7" r="4" fill="#dc2626"/>
<rect x="96" y="86" width="12" height="12" fill="#dc2626"/>
<text x="114" y="96" font-family="Arial" font-size="12">Backtracking</text>
<polyline points="86.0,298.1 86.0,283.5 86.1,292.1 86.8,284.5 94.1,287.4 166.6,418.9 892.0,444.0" fill="none" stroke="#16a34a" stroke-width="2.5"/>
<circle cx="86.0" cy="298.1" r="4" fill="#16a34a"/>
<circle cx="86.0" cy="283.5" r="4" fill="#16a34a"/>
<circle cx="86.1" cy="292.1" r="4" fill="#16a34a"/>
<circle cx="86.8" cy="284.5" r="4" fill="#16a34a"/>
<circle cx="94.1" cy="287.4" r="4" fill="#16a34a"/>
<circle cx="166.6" cy="418.9" r="4" fill="#16a34a"/>
<circle cx="892.0" cy="444.0" r="4" fill="#16a34a"/>
<rect x="96" y="106" width="12" height="12" fill="#16a34a"/>
<text x="114" y="116" font-family="Arial" font-size="12">Branch-and-bound</text>
<text x="489.0" y="500" text-anchor="middle" font-family="Arial" font-size="13">Capacidade de peso (W)</text>
<text x="18" y="249.0" text-anchor="middle" transform="rotate(-90 18 249.0)" font-family="Arial" font-size="13">Tempo medio (s, escala log)</text>
</svg>