<svg xmlns="http://www.w3.org/2000/svg" width="920" height="520" viewBox="0 0 920 520">
<rect width="100%" height="100%" fill="white"/>
<text x="460.0" y="28" text-anchor="middle" font-family="Arial" font-size="18" font-weight="700">Tempo medio por n - CSV_100a1000.csv</text>
<line x1="86" y1="54" x2="86" y2="444" stroke="#444"/>
<line x1="86" y1="444" x2="892" y2="444" stroke="#444"/>
<line x1="86" y1="54.0" x2="892" y2="54.0" stroke="#e5e7eb"/>
<text x="76" y="58.0" text-anchor="end" font-family="Arial" font-size="11">6.02e+03</text>
<line x1="86" y1="132.0" x2="892" y2="132.0" stroke="#e5e7eb"/>
<text x="76" y="136.0" text-anchor="end" font-family="Arial" font-size="11">247</text>
<line x1="86" y1="210.0" x2="892" y2="210.0" stroke="#e5e7eb"/>
<text x="76" y="214.0" text-anchor="end" font-family="Arial" font-size="11">10.2</text>
<line x1="86" y1="288.0" x2="892" y2="288.0" stroke="#e5e7eb"/>
<text x="76" y="292.0" text-anchor="end" font-family="Arial" font-size="11">0.418</text>
<line x1="86" y1="366.0" x2="892" y2="366.0" stroke="#e5e7eb"/>
<text x="76" y="370.0" text-anchor="end" font-family="Arial" font-size="11">0.0172</text>
<line x1="86" y1="444.0" x2="892" y2="444.0" stroke="#e5e7eb"/>
<text x="76" y="448.0" text-anchor="end" font-family="Arial" font-size="11">0.000705</text>
<line x1="86.0" y1="444" x2="86.0" y2="449" stroke="#444"/>
<text x="86.0" y="466" text-anchor="middle" font-family="Arial" font-size="11">100</text>
<line x1="175.6" y1="444" x2="175.6" y2="449" stroke="#444"/>
<text x="175.6" y="466" text-anchor="middle" font-family="Arial" font-size="11">200</text>
<line x1="265.1" y1="444" x2="265.1" y2="449" stroke="#444"/>
<text x="265.1" y="466" text-anchor="middle" font-family="Arial" font-size="11">300</text>
<line x1="354.7" y1="444" x2="354.7" y2="449" stroke="#444"/>
<text x="354.7" y="466" text-anchor="middle" font-family="Arial" font-size="11">400</text>
<line x1="444.2" y1="444" x2="444.2" y2="449" stroke="#444"/>
<text x="444.2" y="466" text-anchor="middle" font-family="Arial" font-size="11">500</text>
<line x1="533.8" y1="444" x2="533.8" y2="449" stroke="#444"/>
<text x="533.8" y="466" text-anchor="middle" font-family="Arial" font-size="11">600</text>
<line x1="623.3" y1="444" x2="623.3" y2="449" stroke="#444"/>
<text x="623.3" y="466" text-anchor="middle" font-family="Arial" font-size="11">700</text>
<line x1="712.9" y1="444" x2="712.9" y2="449" stroke="#444"/>
<text x="712.9" y="466" text-anchor="middle" font-family="Arial" font-size="11">800</text>
<line x1="892.0" y1="444" x2="892.0" y2="449" stroke="#444"/>
<text x="892.0" y="466" text-anchor="middle" font-family="Arial" font-size="11">1000</text>
<polyline points="86.0,391.9 175.6,332.4 265.1,304.9 354.7,285.5 444.2,284.0 533.8,297.6 623.3,228.9 712.9,229.5 892.0,286.7" fill="none" stroke="#2563eb" stroke-width="2.5"/>
<circle cx="86.0" cy="391.9" r="4" fill="#2563eb"/>
<circle cx="175.6" cy="332.4" r="4" fill="#2563eb"/>
<circle cx="265.1" cy="304.9" r="4" fill="#2563eb"/>
<circle cx="354.7" cy="285.5" r="4" fill="#2563eb"/>
<circle cx="444.2" cy="284.0" r="4" fill="#2563eb"/>
<circle cx="533.8" cy="297.6" r="4" fill="#2563eb"/>
<circle cx="623.3" cy="228.9" r="4" fill="#2563eb"/>
<circle cx="712.9" cy="229.5" r="4" fill="#2563eb"/>
<circle cx="892.0" cy="286.7" r="4" fill="#2563eb"/>
<rect x="96" y="66" width="12" height="12" fill="#2563eb"/>
<text x="114" y="76" font-family="Arial" font-size="12">Programacao dinamica</text>
<polyline points="86.0,412.9 175.6,315.6 265.1,248.8 354.7,192.7 444.2,152.4 533.8,124.2 623.3,74.4 712.9,54.0 892.0,54.2" fill="none" stroke="#dc2626" stroke-width="2.5"/>
<circle cx="86.0" cy="412.9" r="4" fill="#dc2626"/>
<circle cx="175.6" cy="315.6" r="4" fill="#dc2626"/>
<circle cx="265.1" cy="248.8" r="4" fill="#dc2626"/>
<circle cx="354.7" cy="192.7" r="4" fill="#dc2626"/>
<circle cx="444.2" cy="152.4" r="4" fill="#dc2626"/>
<circle cx="533.8" cy="124.2" r="4" fill="#dc2626"/>
<circle cx="623.3" cy="74.4" r="4" fill="#dc2626"/>
<circle cx="712.9" cy="54.0" r="4" fill="#dc2626"/>
<circle cx="892.0" cy="54.2" r="4" fill="#dc2626"/>
<rect x="96" y="86" width="12" height="12" fill="#dc2626"/>
<text x="114" y="96" font-family="Arial" font-size="12">Backtracking</text>
<polyline points="86.0,444.0 175.6,360.2 265.1,301.8 354.7,248.4 444.2,209.7 533.8,182.9 623.3,121.3 712.9,103.1 892.0,124.0" fill="none" stroke="#16a34a" stroke-width="2.5"/>
<circle cx="86.0" cy="444.0" r="4" fill="#16a34a"/>
<circle cx="175.6" cy="360.2" r="4" fill="#16a34a"/>
<circle cx="265.1" cy="301.8" r="4" fill="#16a34a"/>
<circle cx="354.7" cy="248.4" r="4" fill="#16a34a"/>
<circle cx="444.2" cy="209.7" r="4" fill="#16a34a"/>
<circle cx="533.8" cy="182.9" r="4" fill="#16a34a"/>
<circle cx="623.3" cy="121.3" r="4" fill="#16a34a"/>
<circle cx="712.9" cy="103.1" r="4" fill="#16a34a"/>
<circle cx="892.0" cy="124.0" r="4" fill="#16a34a"/>
<rect x="96" y="106" width="12" height="12" fill="#16a34a"/>
<text x="114" y="116" font-family="Arial" font-size="12">Branch-and-bound</text>
<text x="489.0" y="500" text-anchor="middle" font-family="Arial" font-size="13">Quantidade de itens (n)</text>
<text x="18" y="249.0" text-anchor="middle" transform="rotate(-90 18 249.0)" font-family="Arial" font-size="13">Tempo medio (s, escala log)</text>
</svg>