<svg xmlns="http://www.w3.org/2000/svg" width="920" height="520" viewBox="0 0 920 520">
<rect width="100%" height="100%" fill="white"/>
<text x="460.0" y="28" text-anchor="middle" font-family="Arial" font-size="18" font-weight="700">Tempo medio por peso - CSV_100a1000.csv</text>
<line x1="86" y1="54" x2="86" y2="444" stroke="#444"/>
<line x1="86" y1="444" x2="892" y2="444" stroke="#444"/>
<line x1="86" y1="54.0" x2="892" y2="54.0" stroke="#e5e7eb"/>
<text x="76" y="58.0" text-anchor="end" font-family="Arial" font-size="11">196</text>
<line x1="86" y1="132.0" x2="892" y2="132.0" stroke="#e5e7eb"/>
<text x="76" y="136.0" text-anchor="end" font-family="Arial" font-size="11">42</text>
<line x1="86" y1="210.0" x2="892" y2="210.0" stroke="#e5e7eb"/>
<text x="76" y="214.0" text-anchor="end" font-family="Arial" font-size="11">8.99</text>
<line x1="86" y1="288.0" x2="892" y2="288.0" stroke="#e5e7eb"/>
<text x="76" y="292.0" text-anchor="end" font-family="Arial" font-size="11">1.92</text>
<line x1="86" y1="366.0" x2="892" y2="366.0" stroke="#e5e7eb"/>
<text x="76" y="370.0" text-anchor="end" font-family="Arial" font-size="11">0.411</text>
<line x1="86" y1="444.0" x2="892" y2="444.0" stroke="#e5e7eb"/>
<text x="76" y="448.0" text-anchor="end" font-family="Arial" font-size="11">0.088</text>
<line x1="86.0" y1="444" x2="86.0" y2="449" stroke="#444"/>
<text x="86.0" y="466" text-anchor="middle" font-family="Arial" font-size="11">100</text>
<line x1="287.5" y1="444" x2="287.5" y2="449" stroke="#444"/>
<text x="287.5" y="466" text-anchor="middle" font-family="Arial" font-size="11">200</text>
<line x1="489.0" y1="444" x2="489.0" y2="449" stroke="#444"/>
<text x="489.0" y="466" text-anchor="middle" font-family="Arial" font-size="11">300</text>
<line x1="690.5" y1="444" x2="690.5" y2="449" stroke="#444"/>
<text x="690.5" y="466" text-anchor="middle" font-family="Arial" font-size="11">400</text>
<line x1="892.0" y1="444" x2="892.0" y2="449" stroke="#444"/>
<text x="892.0" y="466" text-anchor="middle" font-family="Arial" font-size="11">500</text>
<polyline points="86.0,444.0 287.5,414.7 489.0,391.2 690.5,376.8 892.0,339.9" fill="none" stroke="#2563eb" stroke-width="2.5"/>
<circle cx="86.0" cy="444.0" r="4" fill="#2563eb"/>
<circle cx="287.5" cy="414.7" r="4" fill="#2563eb"/>
<circle cx="489.0" cy="391.2" r="4" fill="#2563eb"/>
<circle cx="690.5" cy="376.8" r="4" fill="#2563eb"/>
<circle cx="892.0" cy="339.9" r="4" fill="#2563eb"/>
<rect x="96" y="66" width="12" height="12" fill="#2563eb"/>
<text x="114" y="76" font-family="Arial" font-size="12">Programacao dinamica</text>
<polyline points="86.0,100.4 287.5,102.6 489.0,89.6 690.5,150.9 892.0,54.0" fill="none" stroke="#dc2626" stroke-width="2.5"/>
<circle cx="86.0" cy="100.4" r="4" fill="#dc2626"/>
<circle cx="287.5" cy="102.6" r="4" fill="#dc2626"/>
<circle cx="489.0" cy="89.6" r="4" fill="#dc2626"/>
<circle cx="690.5" cy="150.9" r="4" fill="#dc2626"/>
<circle cx="892.0" cy="54.0" r="4" fill="#dc2626"/>
<rect x="96" y="86" width="12" height="12" fill="#dc2626"/>
<text x="114" y="96" font-family="Arial" font-size="12">Backtracking</text>
<polyline points="86.0,227.1 287.5,217.8 489.0,214.3 690.5,270.4 892.0,160.9" fill="none" stroke="#16a34a" stroke-width="2.5"/>
<circle cx="86.0" cy="227.1" r="4" fill="#16a34a"/>
<circle cx="287.5" cy="217.8" r="4" fill="#16a34a"/>
<circle cx="489.0" cy="214.3" r="4" fill="#16a34a"/>
<circle cx="690.5" cy="270.4" r="4" fill="#16a34a"/>
<circle cx="892.0" cy="160.9" r="4" fill="#16a34a"/>
<rect x="96" y="106" width="12" height="12" fill="#16a34a"/>
<text x="114" y="116" font-family="Arial" font-size="12">Branch-and-bound</text>
<text x="489.0" y="500" text-anchor="middle" font-family="Arial" font-size="13">Capacidade de peso (W)</text>
<text x="18" y="249.0" text-anchor="middle" transform="rotate(-90 18 249.0)" font-family="Arial" font-size="13">Tempo medio (s, escala log)</text>
</svg>