<svg xmlns="http://www.w3.org/2000/svg" width="920" height="520" viewBox="0 0 920 520">
<rect width="100%" height="100%" fill="white"/>
<text x="460.0" y="28" text-anchor="middle" font-family="Arial" font-size="18" font-weight="700">Tempo medio por peso - Teste_com_aumento_de_peso_e_volume.csv</text>
<line x1="86" y1="54" x2="86" y2="444" stroke="#444"/>
<line x1="86" y1="444" x2="892" y2="444" stroke="#444"/>
<line x1="86" y1="54.0" x2="892" y2="54.0" stroke="#e5e7eb"/>
<text x="76" y="58.0" text-anchor="end" font-family="Arial" font-size="11">0.0141</text>
<line x1="86" y1="132.0" x2="892" y2="132.0" stroke="#e5e7eb"/>
<text x="76" y="136.0" text-anchor="end" font-family="Arial" font-size="11">0.00753</text>
<line x1="86" y1="210.0" x2="892" y2="210.0" stroke="#e5e7eb"/>
<text x="76" y="214.0" text-anchor="end" font-family="Arial" font-size="11">0.00403</text>
<line x1="86" y1="288.0" x2="892" y2="288.0" stroke="#e5e7eb"/>
<text x="76" y="292.0" text-anchor="end" font-family="Arial" font-size="11">0.00216</text>
<line x1="86" y1="366.0" x2="892" y2="366.0" stroke="#e5e7eb"/>
<text x="76" y="370.0" text-anchor="end" font-family="Arial" font-size="11">0.00116</text>
<line x1="86" y1="444.0" x2="892" y2="444.0" stroke="#e5e7eb"/>
<text x="76" y="448.0" text-anchor="end" font-family="Arial" font-size="11">0.00062</text>
<line x1="86.0" y1="444" x2="86.0" y2="449" stroke="#444"/>
<text x="86.0" y="466" text-anchor="middle" font-family="Arial" font-size="11">100</text>
<line x1="86.0" y1="444" x2="86.0" y2="449" stroke="#444"/>
<text x="86.0" y="466" text-anchor="middle" font-family="Arial" font-size="11">1000</text>
<line x1="86.0" y1="444" x2="86.0" y2="449" stroke="#444"/>
<text x="86.0" y="466" text-anchor="middle" font-family="Arial" font-size="11">10000</text>
<line x1="86.1" y1="444" x2="86.1" y2="449" stroke="#444"/>
<text x="86.1" y="466" text-anchor="middle" font-family="Arial" font-size="11">100000</text>
<line x1="86.8" y1="444" x2="86.8" y2="449" stroke="#444"/>
<text x="86.8" y="466" text-anchor="middle" font-family="Arial" font-size="11">1000000</text>
<line x1="94.1" y1="444" x2="94.1" y2="449" stroke="#444"/>
<text x="94.1" y="466" text-anchor="middle" font-family="Arial" font-size="11">10000000</text>
<line x1="166.6" y1="444" x2="166.6" y2="449" stroke="#444"/>
<text x="166.6" y="466" text-anchor="middle" font-family="Arial" font-size="11">100000000</text>
<line x1="892.0" y1="444" x2="892.0" y2="449" stroke="#444"/>
<text x="892.0" y="466" text-anchor="middle" font-family="Arial" font-size="11">1000000000</text>
<polyline points="86.0,94.5 86.0,68.3 86.0,54.0 86.1,85.9 86.8,57.4 94.1,94.5 166.6,106.4 892.0,72.7" fill="none" stroke="#2563eb" stroke-width="2.5"/>
<circle cx="86.0" cy="94.5" r="4" fill="#2563eb"/>
<circle cx="86.0" cy="68.3" r="4" fill="#2563eb"/>
<circle cx="86.0" cy="54.0" r="4" fill="#2563eb"/>
<circle cx="86.1" cy="85.9" r="4" fill="#2563eb"/>
<circle cx="86.8" cy="57.4" r="4" fill="#2563eb"/>
<circle cx="94.1" cy="94.5" r="4" fill="#2563eb"/>
<circle cx="166.6" cy="106.4" r="4" fill="#2563eb"/>
<circle cx="892.0" cy="72.7" r="4" fill="#2563eb"/>
<rect x="96" y="66" width="12" height="12" fill="#2563eb"/>
<text x="114" y="76" font-family="Arial" font-size="12">Programacao dinamica</text>
<polyline points="86.0,224.2 86.0,216.8 86.0,204.9 86.1,259.0 86.8,254.5 94.1,289.8 166.6,278.5 892.0,247.6" fill="none" stroke="#dc2626" stroke-width="2.5"/>
<circle cx="86.0" cy="224.2" r="4" fill="#dc2626"/>
<circle cx="86.0" cy="216.8" r="4" fill="#dc2626"/>
<circle cx="86.0" cy="204.9" r="4" fill="#dc2626"/>
<circle cx="86.1" cy="259.0" r="4" fill="#dc2626"/>
<circle cx="86.8" cy="254.5" r="4" fill="#dc2626"/>
<circle cx="94.1" cy="289.8" r="4" fill="#dc2626"/>
<circle cx="166.6" cy="278.5" r="4" fill="#dc2626"/>
<circle cx="892.0" cy="247.6" r="4" fill="#dc2626"/>
<rect x="96" y="86" width="12" height="12" fill="#dc2626"/>
<text x="114" y="96" font-family="Arial" font-size="12">Backtracking</text>
<polyline points="86.0,380.8 86.0,376.9 86.0,369.4 86.1,407.1 86.8,442.5 94.1,438.5 166.6,444.0 892.0,429.3" fill="none" stroke="#16a34a" stroke-width="2.5"/>
<circle cx="86.0" cy="380.8" r="4" fill="#16a34a"/>
<circle cx="86.0" cy="376.9" r="4" fill="#16a34a"/>
<circle cx="86.0" cy="369.4" r="4" fill="#16a34a"/>
<circle cx="86.1" cy="407.1" r="4" fill="#16a34a"/>
<circle cx="86.8" cy="442.5" r="4" fill="#16a34a"/>
<circle cx="94.1" cy="438.5" r="4" fill="#16a34a"/>
<circle cx="166.6" cy="444.0" r="4" fill="#16a34a"/>
<circle cx="892.0" cy="429.3" r="4" fill="#16a34a"/>
<rect x="96" y="106" width="12" height="12" fill="#16a34a"/>
<text x="114" y="116" font-family="Arial" font-size="12">Branch-and-bound</text>
<text x="489.0" y="500" text-anchor="middle" font-family="Arial" font-size="13">Capacidade de peso (W)</text>
<text x="18" y="249.0" text-anchor="middle" transform="rotate(-90 18 249.0)" font-family="Arial" font-size="13">Tempo medio (s, escala log)</text>
</svg>